<svg width="603" height="105" viewBox="0 0 603 105" fill="none" xmlns="http://www.w3.org/2000/svg">
<path d="M0 35.1825C0 21.1655 8.24915 14.5679 20.779 14.5679H54.7533L54.589 34.3609H24.5749V102.794H0V35.1825Z" fill="#FAFAFC"/>
<path d="M145.28 102.408H125.988L124.172 86.2465H122.85C118.232 97.4618 108.833 104.059 94.1584 104.059C75.6882 104.059 64.3086 91.5296 64.3086 71.2436V14.847H85.2519V65.1389C85.2519 77.8331 89.8694 86.4109 103.722 86.4109C116.416 86.4109 124.337 78.4986 124.337 64.3173V14.847H145.28V102.408Z" fill="#FAFAFC"/>
<path d="M160.232 14.8471H179.36L181.176 30.1869H182.499C187.116 19.8015 196.844 13.2039 211.518 13.2039C230.153 13.2039 241.532 25.7337 241.532 46.0197V102.416H220.589V52.1162C220.589 39.422 215.807 30.8442 201.955 30.8442C189.096 30.8442 181.176 38.7565 181.176 52.9378V102.408H160.232V14.8471Z" fill="#FAFAFC"/>
<path d="M251.426 63.9887V54.2606C251.426 28.0425 267.858 13.2039 292.269 13.2039C317.501 13.2039 332.282 28.2068 332.282 52.7817V63.6683H272.369V68.1215C272.369 77.3566 277.258 87.5776 292.433 87.5776C303.155 87.5776 309.367 82.9601 311.511 75.2121H331.962C329.653 92.6882 314.699 104.068 292.441 104.068C267.702 104.068 251.434 88.9005 251.434 63.9969L251.426 63.9887ZM311.668 49.8074C311.339 36.4477 304.47 29.3571 291.932 29.3571C279.074 29.3571 272.69 37.105 272.361 49.8074H311.668Z" fill="#FAFAFC"/>
<path d="M338.938 17.4842H354.606V0H375.549V17.4842H393.025V34.6316H375.549V85.589H393.198V102.408H372.747C359.889 102.408 354.606 96.303 354.606 84.4305V34.6316H338.938V17.4842Z" fill="#FAFAFC"/>
<path d="M436.176 50.7935H457.39V45.0257C457.39 34.8046 451.672 30.0227 440.621 30.0227C429.077 30.0227 424.188 34.8046 423.523 42.5526H404.56C405.217 23.918 418.519 13.1958 441.607 13.1958C465.516 13.1958 478.161 24.2467 478.161 46.176V102.408H461.014L459.691 89.5497H458.204C454.408 98.7848 445.288 104.06 431.764 104.06C413.787 104.06 402.629 93.5017 402.629 77.8415C402.629 61.1871 413.072 50.8017 436.16 50.8017L436.176 50.7935ZM422.874 77.3403C422.874 84.1023 428.264 88.2269 437.992 88.2269C451.351 88.2269 457.399 82.1222 457.399 72.5584V63.652H437.992C427.105 63.652 422.874 68.2695 422.874 74.7029V77.3403Z" fill="#FAFAFC"/>
<path d="M491.258 0H512.201V102.408H491.258V0Z" fill="#FAFAFC"/>
<path d="M521.709 63.9887V54.2606C521.709 28.0425 538.142 13.2039 562.552 13.2039C587.784 13.2039 602.565 28.2068 602.565 52.7817V63.6683H542.652V68.1215C542.652 77.3566 547.541 87.5776 562.716 87.5776C573.439 87.5776 579.65 82.9601 581.795 75.2121H602.245C599.936 92.6882 584.983 104.068 562.725 104.068C537.985 104.068 521.717 88.9005 521.717 63.9969L521.709 63.9887ZM581.951 49.8074C581.622 36.4477 574.753 29.3571 562.215 29.3571C549.357 29.3571 542.973 37.105 542.644 49.8074H581.951Z" fill="#FAFAFC"/>
</svg>
