<svg width="368" height="217" viewBox="0 0 368 217" fill="none" xmlns="http://www.w3.org/2000/svg">
<path d="M4.732 50V12.092H21.632C29.744 12.092 34.32 16.044 34.32 23.012C34.32 27.64 31.98 30.864 28.496 32.164V32.476H29.276C32.136 32.476 33.748 34.088 33.748 36.896V50H27.924V35.752H10.556L10.504 50H4.732ZM10.504 30.916H20.592C25.116 30.916 28.184 28.628 28.184 24.052C28.184 19.58 25.532 17.136 20.436 17.136H10.504V30.916ZM63.778 22.648V50H58.786L58.214 44.904H57.85C56.342 48.388 53.43 50.52 48.75 50.52C43.03 50.52 39.39 46.672 39.39 40.224V22.648H44.85V38.664C44.85 42.928 46.41 45.788 51.194 45.788C55.562 45.788 58.266 42.928 58.266 38.352V22.648H63.778ZM71.6422 50V22.648H76.6342L77.1542 27.536H77.5182C79.0262 24.26 81.9902 22.128 86.6702 22.128C92.4422 22.128 96.0822 25.976 96.0822 32.424V50H90.6222V33.984C90.6222 29.72 89.0102 26.86 84.2262 26.86C79.8062 26.86 77.1022 29.72 77.1022 34.296V50H71.6422ZM114.762 50.52C107.118 50.52 101.814 45.736 101.814 38.092V34.972C101.814 26.756 107.17 22.128 114.71 22.128C122.51 22.128 127.242 26.912 127.242 34.452V37.572H107.378V39.236C107.378 42.824 109.77 46.1 114.762 46.1C118.61 46.1 121.106 44.384 121.782 41.628H127.242C126.41 46.984 121.574 50.52 114.762 50.52ZM107.378 33.776H121.782C121.73 28.94 118.922 26.444 114.554 26.444C109.978 26.444 107.43 29.304 107.378 33.776Z" fill="#007CF0"/>
<path d="M142.112 50L155.632 12.092H163.848L177.42 50H171.596L168.476 41.42H150.9L147.832 50H142.112ZM152.512 36.74H166.864L162.964 26.08L159.896 17.188H159.48L156.464 26.028L152.512 36.74ZM182.345 50V12.092H187.805V50H182.345ZM195.599 58.684V22.648H200.487L201.007 27.64H201.423C202.931 24.26 206.207 22.128 210.731 22.128C217.699 22.128 221.859 26.756 221.859 34.556V38.3C221.859 46.308 217.491 50.52 210.835 50.52C206.311 50.52 202.775 48.336 201.423 44.852H201.059L201.007 58.684H195.599ZM208.859 45.84C213.487 45.84 216.295 43.084 216.295 38.144V34.712C216.295 30.136 213.955 26.86 208.911 26.86C204.179 26.86 201.059 30.188 201.059 34.712V38.144C201.059 42.616 204.179 45.84 208.859 45.84ZM227.896 50V12.092H233.356V27.744H233.772C235.28 24.26 238.244 22.128 242.924 22.128C248.696 22.128 252.336 25.976 252.336 32.424V50H246.876V33.984C246.876 29.72 245.316 26.86 240.48 26.86C236.06 26.86 233.356 29.72 233.356 34.296V50H227.896ZM258.224 42.304C258.224 37 262.072 33.828 269.144 33.828H276.58V31.904C276.58 28.16 274.24 26.548 270.444 26.548C266.336 26.548 264.412 28.316 264.152 30.968H259.108C259.42 25.3 263.788 22.128 270.704 22.128C278.088 22.128 281.988 25.664 281.988 32.112V50H277.412L277.1 45.944H276.684C275.384 48.96 271.9 50.52 267.74 50.52C262.02 50.52 258.224 47.244 258.224 42.304ZM263.788 41.42V42.356C263.788 44.696 265.92 46.256 269.404 46.256C274.188 46.256 276.58 43.968 276.58 40.536V37.468H269.508C265.66 37.468 263.788 39.08 263.788 41.42ZM304.677 50.52C300.153 50.52 296.877 48.388 295.369 45.008H295.005L294.433 50H289.545V12.092H294.953V27.796H295.369C296.721 24.312 300.257 22.128 304.781 22.128C311.437 22.128 315.805 26.34 315.805 34.348V38.092C315.805 45.892 311.645 50.52 304.677 50.52ZM302.857 45.788C307.901 45.788 310.241 42.512 310.241 37.936V34.504C310.241 29.564 307.433 26.808 302.805 26.808C298.125 26.808 295.005 30.032 295.005 34.504V37.936C295.005 42.46 298.125 45.788 302.857 45.788ZM333.325 50.52C325.681 50.52 320.377 45.736 320.377 38.092V34.972C320.377 26.756 325.733 22.128 333.273 22.128C341.073 22.128 345.805 26.912 345.805 34.452V37.572H325.941V39.236C325.941 42.824 328.333 46.1 333.325 46.1C337.173 46.1 339.669 44.384 340.345 41.628H345.805C344.973 46.984 340.137 50.52 333.325 50.52ZM325.941 33.776H340.345C340.293 28.94 337.485 26.444 333.117 26.444C328.541 26.444 325.993 29.304 325.941 33.776ZM349.104 27.224V22.648H354.044V13.704H359.504V22.648H365.12V27.224H359.504V45.528H365.172V50H358.88C355.604 50 354.044 48.544 354.044 45.216V27.224H349.104Z" fill="#FAFAFC"/>
<path d="M169.936 129L179.868 114.544L171.028 101.648H177.268L183.404 111.008H183.768L189.852 101.648H196.144L187.356 114.388L197.288 129H190.84L183.664 118.288H183.3L176.124 129H169.936Z" fill="#FAFAFC"/>
<path d="M62.732 208V170.092H88.784V175.24H68.504V187.356H86.704V192.296H68.504V208H62.732ZM92.3805 200.304C92.3805 195 96.2285 191.828 103.301 191.828H110.737V189.904C110.737 186.16 108.397 184.548 104.601 184.548C100.493 184.548 98.5685 186.316 98.3085 188.968H93.2645C93.5765 183.3 97.9445 180.128 104.861 180.128C112.245 180.128 116.145 183.664 116.145 190.112V208H111.569L111.257 203.944H110.841C109.541 206.96 106.057 208.52 101.897 208.52C96.1765 208.52 92.3805 205.244 92.3805 200.304ZM97.9445 199.42V200.356C97.9445 202.696 100.077 204.256 103.561 204.256C108.345 204.256 110.737 201.968 110.737 198.536V195.468H103.665C99.8165 195.468 97.9445 197.08 97.9445 199.42ZM123.701 176.228V170.092H129.161V176.228H123.701ZM123.701 208V180.648H129.161V208H123.701ZM136.955 208V185.432C136.955 182.208 138.879 180.648 141.791 180.648H152.607V185.12H142.415V208H136.955ZM158.13 208V170.092H163.59V208H158.13ZM168.368 180.648H174.296L178.04 189.384L182.148 199.316H182.46L186.724 189.384L190.468 180.648H196.396L185.112 204.672V211.9C185.112 213.824 184.8 216.684 180.38 216.684H169.928V212.264H179.704L179.652 204.62L168.368 180.648Z" fill="#FAFAFC"/>
<path d="M210.9 175.24V170.092H239.812V175.24H228.216V208H222.444V175.24H210.9ZM238.935 200.304C238.935 195 242.783 191.828 249.855 191.828H257.291V189.904C257.291 186.16 254.951 184.548 251.155 184.548C247.047 184.548 245.123 186.316 244.863 188.968H239.819C240.131 183.3 244.499 180.128 251.415 180.128C258.799 180.128 262.699 183.664 262.699 190.112V208H258.123L257.811 203.944H257.395C256.095 206.96 252.611 208.52 248.451 208.52C242.731 208.52 238.935 205.244 238.935 200.304ZM244.499 199.42V200.356C244.499 202.696 246.631 204.256 250.115 204.256C254.899 204.256 257.291 201.968 257.291 198.536V195.468H250.219C246.371 195.468 244.499 197.08 244.499 199.42ZM270.255 208V170.092H275.715V208H270.255ZM294.637 208.52C286.993 208.52 281.689 203.736 281.689 196.092V192.972C281.689 184.756 287.045 180.128 294.585 180.128C302.385 180.128 307.117 184.912 307.117 192.452V195.572H287.253V197.236C287.253 200.824 289.645 204.1 294.637 204.1C298.485 204.1 300.981 202.384 301.657 199.628H307.117C306.285 204.984 301.449 208.52 294.637 208.52ZM287.253 191.776H301.657C301.605 186.94 298.797 184.444 294.429 184.444C289.853 184.444 287.305 187.304 287.253 191.776Z" fill="#007CF0"/>
</svg>
